<svg width="1098" height="175" viewBox="0 0 1098 175" fill="none" xmlns="http://www.w3.org/2000/svg">
<path d="M1022.18 174.251V64.9756H1041.55V130.696H1041.86L1072.4 98.4556H1095.8L1057.67 138.756V130.696L1097.97 174.251H1074.26L1041.86 140.461H1041.55V174.251H1022.18Z" fill="#FFFFFF"/>
<path d="M984.099 173.871C976.143 173.871 969.22 172.269 963.33 169.066C957.44 165.759 952.893 161.109 949.69 155.116C946.486 149.122 944.885 142.096 944.885 134.036C944.885 125.976 946.486 119.052 949.69 113.266C952.893 107.376 957.44 102.881 963.33 99.7806C969.22 96.5773 976.143 94.9756 984.099 94.9756C988.956 94.9756 993.761 95.7506 998.515 97.3006C1003.27 98.8506 1007.19 101.021 1010.29 103.811L1004.56 117.296C1001.87 114.919 998.824 113.111 995.414 111.871C992.108 110.631 988.905 110.011 985.805 110.011C979.088 110.011 973.87 112.129 970.15 116.366C966.533 120.499 964.724 126.441 964.724 134.191C964.724 141.837 966.533 147.882 970.15 152.326C973.87 156.666 979.088 158.836 985.805 158.836C988.801 158.836 992.004 158.216 995.414 156.976C998.824 155.736 1001.87 153.876 1004.56 151.396L1010.29 165.036C1007.19 167.722 1003.22 169.892 998.359 171.546C993.606 173.096 988.853 173.871 984.099 173.871Z" fill="#FFFFFF"/>
<path d="M902.416 173.871C893.839 173.871 886.451 172.269 880.251 169.066C874.051 165.862 869.246 161.316 865.836 155.426C862.529 149.536 860.876 142.561 860.876 134.501C860.876 126.647 862.477 119.776 865.681 113.886C868.987 107.996 873.482 103.397 879.166 100.091C884.952 96.6806 891.514 94.9756 898.851 94.9756C906.084 94.9756 912.284 96.5256 917.451 99.6256C922.617 102.726 926.596 107.117 929.386 112.801C932.279 118.484 933.726 125.252 933.726 133.106V138.841H876.531V127.681H920.086L917.606 130.006C917.606 122.979 916.056 117.606 912.956 113.886C909.856 110.062 905.412 108.151 899.626 108.151C895.286 108.151 891.566 109.184 888.466 111.251C885.469 113.214 883.144 116.056 881.491 119.776C879.941 123.392 879.166 127.732 879.166 132.796V133.881C879.166 139.564 880.044 144.266 881.801 147.986C883.557 151.706 886.192 154.496 889.706 156.356C893.219 158.216 897.559 159.146 902.726 159.146C906.962 159.146 911.199 158.526 915.436 157.286C919.672 155.942 923.547 153.876 927.061 151.086L932.486 164.106C928.869 167.102 924.322 169.479 918.846 171.236C913.369 172.992 907.892 173.871 902.416 173.871Z" fill="#FFFFFF"/>
<path d="M748.854 174.251V64.9756H789.464C801.658 64.9756 811.991 67.0939 820.464 71.3306C829.041 75.5673 835.551 81.7673 839.994 89.9306C844.541 97.9906 846.814 107.859 846.814 119.536C846.814 131.212 844.541 141.132 839.994 149.296C835.551 157.459 829.041 163.659 820.464 167.896C811.991 172.132 801.658 174.251 789.464 174.251H748.854ZM768.694 157.821H788.224C800.934 157.821 810.389 154.669 816.589 148.366C822.893 141.959 826.044 132.349 826.044 119.536C826.044 106.722 822.893 97.1639 816.589 90.8606C810.286 84.5573 800.831 81.4056 788.224 81.4056H768.694V157.821Z" fill="#FFFFFF"/>
<path d="M687.184 173.871C681.707 173.871 676.799 172.837 672.459 170.771C668.222 168.601 664.864 165.707 662.384 162.091C660.007 158.474 658.819 154.392 658.819 149.846C658.819 144.266 660.265 139.874 663.159 136.671C666.052 133.364 670.754 130.987 677.264 129.541C683.774 128.094 692.505 127.371 703.459 127.371H711.209V138.531H703.614C698.757 138.531 694.675 138.737 691.369 139.151C688.062 139.461 685.375 140.029 683.309 140.856C681.345 141.579 679.899 142.612 678.969 143.956C678.142 145.299 677.729 146.952 677.729 148.916C677.729 152.326 678.917 155.116 681.294 157.286C683.67 159.456 686.977 160.541 691.214 160.541C694.624 160.541 697.62 159.766 700.204 158.216C702.89 156.562 705.009 154.341 706.559 151.551C708.109 148.761 708.884 145.557 708.884 141.941V124.116C708.884 118.949 707.747 115.229 705.474 112.956C703.2 110.682 699.377 109.546 694.004 109.546C689.767 109.546 685.427 110.217 680.984 111.561C676.54 112.801 672.045 114.764 667.499 117.451L661.919 104.276C664.605 102.416 667.757 100.814 671.374 99.4706C675.094 98.0239 678.969 96.9389 682.999 96.2156C687.132 95.3889 691.007 94.9756 694.624 94.9756C702.064 94.9756 708.16 96.1123 712.914 98.3856C717.77 100.659 721.387 104.121 723.764 108.771C726.14 113.317 727.329 119.207 727.329 126.441V172.321H709.194V156.201H710.434C709.71 159.817 708.264 162.969 706.094 165.656C704.027 168.239 701.392 170.254 698.189 171.701C694.985 173.147 691.317 173.871 687.184 173.871Z" fill="#FFFFFF"/>
<path d="M602.287 173.786V97.9906H621.197V116.281H619.647C621.094 110.081 623.935 105.379 628.172 102.176C632.409 98.8689 638.04 96.9573 645.067 96.4406L650.957 95.9756L652.197 112.406L641.037 113.491C634.734 114.111 629.98 116.074 626.777 119.381C623.574 122.584 621.972 127.131 621.972 133.021V173.786H602.287Z" fill="#FFFFFF"/>
<path d="M577.52 173.951C567.393 173.951 559.85 171.419 554.89 166.356C549.93 161.292 547.45 153.904 547.45 144.191V111.176H532.88V96.6056H547.45V73.9756H566.825V96.6056H589.765V111.176H566.825V143.106C566.825 148.066 567.91 151.786 570.08 154.266C572.25 156.746 575.763 157.986 580.62 157.986C582.067 157.986 583.565 157.831 585.115 157.521C586.665 157.107 588.267 156.694 589.92 156.281L592.865 170.541C591.005 171.574 588.628 172.401 585.735 173.021C582.945 173.641 580.207 173.951 577.52 173.951Z" fill="#FFFFFF"/>
<path d="M504.417 173.871C496.46 173.871 489.537 172.269 483.647 169.066C477.757 165.759 473.21 161.109 470.007 155.116C466.803 149.122 465.202 142.096 465.202 134.036C465.202 125.976 466.803 119.052 470.007 113.266C473.21 107.376 477.757 102.881 483.647 99.7806C489.537 96.5773 496.46 94.9756 504.417 94.9756C509.273 94.9756 514.078 95.7506 518.832 97.3006C523.585 98.8506 527.512 101.021 530.612 103.811L524.877 117.296C522.19 114.919 519.142 113.111 515.732 111.871C512.425 110.631 509.222 110.011 506.122 110.011C499.405 110.011 494.187 112.129 490.467 116.366C486.85 120.499 485.042 126.441 485.042 134.191C485.042 141.837 486.85 147.882 490.467 152.326C494.187 156.666 499.405 158.836 506.122 158.836C509.118 158.836 512.322 158.216 515.732 156.976C519.142 155.736 522.19 153.876 524.877 151.396L530.612 165.036C527.512 167.722 523.533 169.892 518.677 171.546C513.923 173.096 509.17 173.871 504.417 173.871Z" fill="#FFFFFF"/>
<path d="M344.882 174.251L394.327 64.9756H410.602L460.047 174.251H439.897L426.722 143.561L435.092 148.986H369.682L378.052 143.561L365.032 174.251H344.882ZM402.232 86.5206L380.532 138.136L376.502 133.176H428.272L424.397 138.136L402.542 86.5206H402.232Z" fill="#FFFFFF"/>
<path d="M290.882 173.976H224.882L207.882 146.976H274.882L290.882 173.976Z" fill="#042265" stroke="#042265"/>
<path d="M265.882 128.976H199.882L182.882 101.976H249.882L265.882 128.976Z" fill="#006CDD" stroke="#006EE0"/>
<path d="M239.882 83.9756H173.882L156.882 56.9756H223.882L239.882 83.9756Z" fill="#00B6FA" stroke="#00B6FA"/>
<path d="M102.382 173.976L118.382 145.976H55.3818L104.382 64.9756L170.382 173.976H207.382L104.382 0.975586L0.881836 173.976H102.382Z" fill="#FFFFFF" stroke="#FFFFFF"/>
</svg>
