<svg width="344" height="339" viewBox="0 0 344 339" fill="none" xmlns="http://www.w3.org/2000/svg">
<rect width="344" height="339" rx="50" fill="#00102F"/>
<path d="M317 242H251L234 215H301L317 242Z" fill="#042265" stroke="#042265"/>
<path d="M292 197H226L209 170H276L292 197Z" fill="#006CDD" stroke="#006EE0"/>
<path d="M266 152H200L183 125H250L266 152Z" fill="#00B6FA" stroke="#00B6FA"/>
<path d="M128.5 242L144.5 214H81.5L130.5 133L196.5 242H233.5L130.5 69L27 242H128.5Z" fill="white" stroke="white"/>
<path d="M317 242H251L234 215H301L317 242Z" fill="#042265" stroke="#042265"/>
<path d="M292 197H226L209 170H276L292 197Z" fill="#006CDD" stroke="#006EE0"/>
<path d="M266 152H200L183 125H250L266 152Z" fill="#00B6FA" stroke="#00B6FA"/>
<path d="M128.5 242L144.5 214H81.5L130.5 133L196.5 242H233.5L130.5 69L27 242H128.5Z" fill="white" stroke="white"/>
<path d="M317 242H251L234 215H301L317 242Z" fill="#042265" stroke="#042265"/>
<path d="M292 197H226L209 170H276L292 197Z" fill="#006CDD" stroke="#006EE0"/>
<path d="M266 152H200L183 125H250L266 152Z" fill="#00B6FA" stroke="#00B6FA"/>
<path d="M128.5 242L144.5 214H81.5L130.5 133L196.5 242H233.5L130.5 69L27 242H128.5Z" fill="white" stroke="white"/>
</svg>
